<svg width="1180" height="610" viewBox="0 0 1180 610" xmlns="http://www.w3.org/2000/svg" xmlns:xlink="http://www.w3.org/1999/xlink">
<defs>
  <clipPath id="canvasClip"><rect width="1180" height="610" rx="24"/></clipPath>
  <clipPath id="avatarClip"><circle cx="224" cy="300" r="118"/></clipPath>
  <clipPath id="leftPanelClip"><rect x="20" y="20" width="408" height="570" rx="20"/></clipPath>
  <clipPath id="typeClip1"><rect x="486" y="125" width="0" height="40"><animate attributeName="width" values="0;430;430;0;0" keyTimes="0;0.15;0.85;0.95;1" dur="9s" repeatCount="indefinite"/></rect></clipPath>

  <linearGradient id="accentGrad" x1="0%" y1="0%" x2="100%" y2="100%">
    <stop offset="0%" stop-color="#2563EB">
      <animate attributeName="stop-color" values="#2563EB;#06B6D4;#10B981;#2563EB" dur="10s" repeatCount="indefinite"/>
    </stop>
    <stop offset="50%" stop-color="#06B6D4">
      <animate attributeName="stop-color" values="#06B6D4;#10B981;#2563EB;#06B6D4" dur="10s" repeatCount="indefinite"/>
    </stop>
    <stop offset="100%" stop-color="#10B981">
      <animate attributeName="stop-color" values="#10B981;#2563EB;#06B6D4;#10B981" dur="10s" repeatCount="indefinite"/>
    </stop>
  </linearGradient>

  <radialGradient id="glowPurple" cx="50%" cy="50%" r="50%">
    <stop offset="0%" stop-color="#2563EB" stop-opacity="0.12"/>
    <stop offset="100%" stop-color="#2563EB" stop-opacity="0"/>
  </radialGradient>
  <radialGradient id="glowCyan" cx="50%" cy="50%" r="50%">
    <stop offset="0%" stop-color="#06B6D4" stop-opacity="0.10"/>
    <stop offset="100%" stop-color="#06B6D4" stop-opacity="0"/>
  </radialGradient>
  <radialGradient id="glowEmerald" cx="50%" cy="50%" r="50%">
    <stop offset="0%" stop-color="#10B981" stop-opacity="0.08"/>
    <stop offset="100%" stop-color="#10B981" stop-opacity="0"/>
  </radialGradient>

  <filter id="blurSoft" x="-50%" y="-50%" width="200%" height="200%">
    <feGaussianBlur stdDeviation="14"/>
  </filter>
  <filter id="blurWide" x="-50%" y="-50%" width="200%" height="200%">
    <feGaussianBlur stdDeviation="40"/>
  </filter>

  <marker id="arrow" viewBox="0 0 10 10" refX="8" refY="5" markerWidth="6" markerHeight="6" orient="auto-start-reverse">
    <path d="M2 1L8 5L2 9" fill="none" stroke="context-stroke" stroke-width="1.5" stroke-linecap="round" stroke-linejoin="round"/>
  </marker>
</defs>

<g clip-path="url(#canvasClip)">
  <rect width="1180" height="610" fill="#FFFFFF"/>

  <circle cx="120" cy="90" r="200" fill="url(#glowPurple)" filter="url(#blurWide)">
    <animateTransform attributeName="transform" type="translate" values="0 0; 25 18; -10 8; 0 0" dur="12s" repeatCount="indefinite"/>
  </circle>
  <circle cx="1040" cy="530" r="240" fill="url(#glowCyan)" filter="url(#blurWide)">
    <animateTransform attributeName="transform" type="translate" values="0 0; -20 -15; 10 -6; 0 0" dur="14s" repeatCount="indefinite"/>
  </circle>
  <circle cx="800" cy="80" r="160" fill="url(#glowEmerald)" filter="url(#blurWide)">
    <animateTransform attributeName="transform" type="translate" values="0 0; -15 20; 0 0" dur="16s" repeatCount="indefinite"/>
  </circle>

  <rect x="0" y="-4" width="1180" height="3" fill="#06B6D4" opacity="0.06">
    <animate attributeName="y" values="-4;614" dur="5s" repeatCount="indefinite"/>
  </rect>

  <g opacity="0.5">
    <circle cx="90" cy="500" r="2" fill="#06B6D4"><animate attributeName="cy" values="500;60;500" dur="9s" repeatCount="indefinite"/><animate attributeName="opacity" values="0;0.7;0" dur="9s" repeatCount="indefinite"/></circle>
    <circle cx="380" cy="560" r="1.5" fill="#2563EB"><animate attributeName="cy" values="560;100;560" dur="11s" repeatCount="indefinite"/><animate attributeName="opacity" values="0;0.6;0" dur="11s" repeatCount="indefinite"/></circle>
    <circle cx="900" cy="580" r="2" fill="#10B981"><animate attributeName="cy" values="580;120;580" dur="13s" repeatCount="indefinite"/><animate attributeName="opacity" values="0;0.6;0" dur="13s" repeatCount="indefinite"/></circle>
    <circle cx="1100" cy="540" r="1.5" fill="#06B6D4"><animate attributeName="cy" values="540;80;540" dur="10s" repeatCount="indefinite"/><animate attributeName="opacity" values="0;0.7;0" dur="10s" repeatCount="indefinite"/></circle>
    <circle cx="650" cy="590" r="1.5" fill="#2563EB"><animate attributeName="cy" values="590;140;590" dur="12s" repeatCount="indefinite"/><animate attributeName="opacity" values="0;0.5;0" dur="12s" repeatCount="indefinite"/></circle>
  </g>

  <g>
    <rect x="20" y="20" width="408" height="570" rx="20" fill="#F8FAFC" opacity="0.55"/>
    <rect x="20.75" y="20.75" width="406.5" height="568.5" rx="19.25" fill="none" stroke="url(#accentGrad)" stroke-width="1.5" stroke-dasharray="26 8">
      <animate attributeName="stroke-dashoffset" from="0" to="-340" dur="7s" repeatCount="indefinite"/>
    </rect>

    <g clip-path="url(#leftPanelClip)" font-family="Consolas, Menlo, monospace" font-size="12" fill="#06B6D4">
      <text x="46" y="70" opacity="0.14">01001 def agent() 10110</text>
      <text x="60" y="130" opacity="0.10">const rag = retrieve(q)</text>
      <text x="40" y="470" opacity="0.10">git commit -m "ship it"</text>
      <text x="70" y="520" opacity="0.14">while(learning): grow()</text>
      <text x="50" y="560" opacity="0.10">10101 import ajeyata 01011</text>
      <animateTransform attributeName="transform" type="translate" values="0 0; 0 -8; 0 0" dur="9s" repeatCount="indefinite"/>
    </g>

    <circle cx="224" cy="300" r="126" fill="none" stroke="url(#accentGrad)" stroke-width="4" filter="url(#blurSoft)" opacity="0.55"/>
    <g clip-path="url(#avatarClip)">
      <image href="https://github.com/amaurya2012.png" x="98" y="174" width="252" height="252" preserveAspectRatio="xMidYMid slice">
        <animateTransform attributeName="transform" type="translate" values="0 0; 0 -6; 0 0" dur="6s" repeatCount="indefinite"/>
      </image>
    </g>
    <circle cx="224" cy="300" r="118" fill="none" stroke="url(#accentGrad)" stroke-width="2.5"/>
    <circle cx="224" cy="300" r="130" fill="none" stroke="#06B6D4" stroke-width="1" opacity="0.5" stroke-dasharray="3 6">
      <animateTransform attributeName="transform" type="rotate" from="0 224 300" to="360 224 300" dur="30s" repeatCount="indefinite"/>
    </circle>

    <text x="224" y="465" text-anchor="middle" font-family="Consolas, Menlo, monospace" font-size="22" font-weight="700" fill="url(#accentGrad)">AJEYATA MAURYA</text>
    <text x="224" y="490" text-anchor="middle" font-family="Consolas, Menlo, monospace" font-size="12" fill="#475569" letter-spacing="2">&lt; DEVELOPER / STUDENT /&gt;</text>

    <text x="224" y="530" text-anchor="middle" font-family="Consolas, Menlo, monospace" font-size="13" fill="#0F172A">_</text>
    <rect x="215" y="518" width="9" height="16" fill="#06B6D4" opacity="0.85">
      <animate attributeName="opacity" values="0.85;0;0.85" dur="1s" repeatCount="indefinite"/>
    </rect>
  </g>

  <g>
    <rect x="452" y="40" width="708" height="530" rx="16" fill="#F8FAFC" opacity="0.6" stroke="rgba(15,23,42,0.08)" stroke-width="1"/>
    <rect x="452.75" y="40.75" width="706.5" height="528.5" rx="15.25" fill="none" stroke="url(#accentGrad)" stroke-width="1" stroke-dasharray="22 10" opacity="0.7">
      <animate attributeName="stroke-dashoffset" from="0" to="-320" dur="8s" repeatCount="indefinite"/>
    </rect>

    <rect x="452" y="40" width="708" height="34" rx="16" fill="#E2E8F0"/>
    <rect x="452" y="58" width="708" height="16" fill="#E2E8F0"/>
    <circle cx="474" cy="57" r="6" fill="#FF5F56"/>
    <circle cx="494" cy="57" r="6" fill="#FFBD2E"/>
    <circle cx="514" cy="57" r="6" fill="#27C93F"/>
    <text x="1136" y="62" text-anchor="end" font-family="Consolas, Menlo, monospace" font-size="12" fill="#475569">ajeyata@dev ~ zsh</text>

    <text x="486" y="112" font-family="Consolas, Menlo, monospace" font-size="22" fill="#0F172A">Hi <tspan font-size="20">👋</tspan></text>
    <text x="486" y="112" font-family="Consolas, Menlo, monospace" font-size="22" fill="#0F172A" opacity="0">
      <animate attributeName="opacity" values="0;0;1" keyTimes="0;0.02;0.05" dur="9s" repeatCount="indefinite" fill="freeze"/>
    </text>

    <g clip-path="url(#typeClip1)">
      <text x="486" y="150" font-family="Consolas, Menlo, monospace" font-size="26" font-weight="700" fill="url(#accentGrad)">I'm Ajeyata Maurya</text>
    </g>
    <rect x="486" y="132" width="9" height="20" fill="#06B6D4">
      <animate attributeName="x" values="486;790;790;486;486" keyTimes="0;0.15;0.85;0.87;1" dur="9s" repeatCount="indefinite"/>
      <animate attributeName="opacity" values="1;1;0;1" keyTimes="0;0.85;0.9;1" dur="9s" repeatCount="indefinite"/>
    </rect>

    <g font-family="Consolas, Menlo, monospace" font-size="18" fill="#475569">
      <text x="486" y="192" opacity="0">CS + Data Science Student
        <animate attributeName="opacity" values="0;1;1;0" keyTimes="0;0.05;0.22;0.25" dur="9s" repeatCount="indefinite"/>
      </text>
      <text x="486" y="192" opacity="0">Python &amp; Django Developer
        <animate attributeName="opacity" values="0;1;1;0" keyTimes="0.25;0.30;0.47;0.50" dur="9s" repeatCount="indefinite"/>
      </text>
      <text x="486" y="192" opacity="0">Agentic AI Builder
        <animate attributeName="opacity" values="0;1;1;0" keyTimes="0.50;0.55;0.72;0.75" dur="9s" repeatCount="indefinite"/>
      </text>
      <text x="486" y="192" opacity="0">Learning Web Development
        <animate attributeName="opacity" values="0;1;1;0" keyTimes="0.75;0.80;0.97;1" dur="9s" repeatCount="indefinite"/>
      </text>
    </g>

    <g font-family="Consolas, Menlo, monospace" font-size="14" fill="#0F172A">
      <g opacity="0">
        <animate attributeName="opacity" values="0;1" begin="0.5s" dur="1s" fill="freeze"/>
        <text x="486" y="232"><tspan fill="#06B6D4">education</tspan> : B.Tech CSE + Data Science</text>
      </g>
      <g opacity="0">
        <animate attributeName="opacity" values="0;1" begin="1.1s" dur="1s" fill="freeze"/>
        <text x="486" y="258"><tspan fill="#06B6D4">focus</tspan> : Building AI-powered projects, learning web dev</text>
      </g>
      <g opacity="0">
        <animate attributeName="opacity" values="0;1" begin="1.7s" dur="1s" fill="freeze"/>
        <text x="486" y="284"><tspan fill="#06B6D4">status</tspan> : Open to internships &amp; collaboration</text>
      </g>
    </g>

    <text x="486" y="326" font-family="Consolas, Menlo, monospace" font-size="13" fill="#475569" letter-spacing="1">SKILLS</text>

    <g font-family="Consolas, Menlo, monospace" font-size="13" font-weight="600">
      <g>
        <rect x="486" y="340" width="66" height="30" rx="15" fill="#F8FAFC" stroke="url(#accentGrad)" stroke-width="1"/>
        <text x="519" y="360" text-anchor="middle" fill="#0F172A">Python</text>
      </g>
      <g>
        <rect x="560" y="340" width="66" height="30" rx="15" fill="#F8FAFC" stroke="url(#accentGrad)" stroke-width="1"/>
        <text x="593" y="360" text-anchor="middle" fill="#0F172A">Django</text>
      </g>
      <g>
        <rect x="634" y="340" width="56" height="30" rx="15" fill="#F8FAFC" stroke="url(#accentGrad)" stroke-width="1"/>
        <text x="662" y="360" text-anchor="middle" fill="#0F172A">HTML</text>
      </g>
      <g>
        <rect x="698" y="340" width="52" height="30" rx="15" fill="#F8FAFC" stroke="url(#accentGrad)" stroke-width="1"/>
        <text x="724" y="360" text-anchor="middle" fill="#0F172A">CSS</text>
      </g>
      <g>
        <rect x="758" y="340" width="88" height="30" rx="15" fill="#F8FAFC" stroke="url(#accentGrad)" stroke-width="1"/>
        <text x="802" y="360" text-anchor="middle" fill="#0F172A">JavaScript</text>
      </g>
      <g>
        <rect x="854" y="340" width="48" height="30" rx="15" fill="#F8FAFC" stroke="url(#accentGrad)" stroke-width="1"/>
        <text x="878" y="360" text-anchor="middle" fill="#0F172A">Git</text>
      </g>
      <g>
        <rect x="910" y="340" width="66" height="30" rx="15" fill="#F8FAFC" stroke="url(#accentGrad)" stroke-width="1"/>
        <text x="943" y="360" text-anchor="middle" fill="#0F172A">GitHub</text>
      </g>
      <g>
        <rect x="984" y="340" width="68" height="30" rx="15" fill="#F8FAFC" stroke="url(#accentGrad)" stroke-width="1"/>
        <text x="1018" y="360" text-anchor="middle" fill="#0F172A">VS Code</text>
      </g>

      <g>
        <rect x="486" y="380" width="94" height="30" rx="15" fill="#F8FAFC" stroke="url(#accentGrad)" stroke-width="1"/>
        <text x="533" y="400" text-anchor="middle" fill="#0F172A">Gemini API</text>
      </g>
      <g>
        <rect x="588" y="380" width="172" height="30" rx="15" fill="#F8FAFC" stroke="url(#accentGrad)" stroke-width="1"/>
        <text x="674" y="400" text-anchor="middle" fill="#0F172A">watsonx Orchestrate</text>
      </g>
      <g>
        <rect x="768" y="380" width="88" height="30" rx="15" fill="#F8FAFC" stroke="url(#accentGrad)" stroke-width="1"/>
        <text x="812" y="400" text-anchor="middle" fill="#0F172A">Streamlit</text>
      </g>
      <g>
        <rect x="864" y="380" width="72" height="30" rx="15" fill="#F8FAFC" stroke="url(#accentGrad)" stroke-width="1"/>
        <text x="900" y="400" text-anchor="middle" fill="#0F172A">Plotly</text>
      </g>

      <g opacity="0.9">
        <animateTransform attributeName="transform" type="scale" values="1;1.06;1" dur="3s" begin="0s" repeatCount="indefinite" additive="sum"/>
      </g>
    </g>

    <line x1="486" y1="432" x2="1136" y2="432" stroke="rgba(15,23,42,0.08)" stroke-width="1"/>

    <g font-family="Consolas, Menlo, monospace" font-size="13" fill="#475569">
      <text x="486" y="460">connect</text>
    </g>

    <g>
      <circle cx="510" cy="500" r="24" fill="#F8FAFC" stroke="url(#accentGrad)" stroke-width="1.5"/>
      <circle cx="510" cy="500" r="24" fill="none" stroke="#06B6D4" stroke-width="0.5" opacity="0.4" filter="url(#blurSoft)"/>
      <path fill="#0F172A" d="M510 484c-9.5 0-17.2 7.7-17.2 17.2 0 7.6 4.9 14.1 11.8 16.4.9.2 1.2-.4 1.2-.8v-3.1c-4.8 1-5.8-2.3-5.8-2.3-.8-2-1.9-2.5-1.9-2.5-1.6-1.1.1-1.1.1-1.1 1.7.1 2.6 1.8 2.6 1.8 1.5 2.6 4 1.9 5 1.4.2-1.1.6-1.9 1.1-2.3-3.8-.4-7.9-1.9-7.9-8.6 0-1.9.7-3.5 1.8-4.7-.2-.4-.8-2.2.2-4.6 0 0 1.5-.5 4.8 1.8 1.4-.4 2.9-.6 4.4-.6s3 .2 4.4.6c3.3-2.2 4.8-1.8 4.8-1.8 1 2.4.4 4.2.2 4.6 1.1 1.2 1.8 2.8 1.8 4.7 0 6.7-4.1 8.2-8 8.6.6.5 1.2 1.6 1.2 3.2v4.7c0 .5.3 1 1.2.8 6.9-2.3 11.8-8.8 11.8-16.4 0-9.5-7.7-17.2-17.2-17.2z"/>
    </g>

    <g>
      <circle cx="574" cy="500" r="24" fill="#F8FAFC" stroke="url(#accentGrad)" stroke-width="1.5"/>
      <circle cx="574" cy="500" r="24" fill="none" stroke="#06B6D4" stroke-width="0.5" opacity="0.4" filter="url(#blurSoft)"/>
      <path fill="#0F172A" d="M566 490.5h-6.5v18h6.5v-18zm-3.2-10.4a3.8 3.8 0 100 7.6 3.8 3.8 0 000-7.6zM590 490.5h-6.3v9.8c0 2.3-.9 3.9-3 3.9-1.6 0-2.6-1.1-3-2.2-.2-.4-.2-.9-.2-1.4v-10.1h-6.3v18h6.3v-9.6c0-.4 0-.9.2-1.2.4-1 1.2-2 2.7-2 1.9 0 2.7 1.5 2.7 3.6v9.2H590v-10.4c0-5.8-3.1-8.5-7.2-8.5-3.3 0-4.8 1.8-5.6 3.1v-2.7z"/>
    </g>
  </g>
</g>
</svg>
